# xmcd
#
# Track frame offsets:
#	150
#	22760
#	41133
#	59492
#	76231
#	91287
#	122573
#	139474
#	161820
#	175622
#	195874
#
# Disc length: 2848 seconds
#
# Revision: 0
# Processed by: cddbd v1.5.2PL0 Copyright (c) Steve Scherf et al.
# Submitted via: audiograbber 1.83.01
#
DISCID=870b1e0b
DTITLE=χαρις αλεξιου - η αγαπη θα σε βρει οπου και νασαι
DYEAR=1900
DGENRE=
TTITLE0=ο ανθρωπος μου
TTITLE1=σημερα κλαιω αυριο γελαω
TTITLE2=πως να πω πως δεν σ αγαπησα
TTITLE3=το μυστικο
TTITLE4=γυρνα εκει που αγαπας
TTITLE5=μεγαλωσα
TTITLE6=εφυγα
TTITLE7=ραντεβου
TTITLE8=κανω οτι μπορω
TTITLE9=κρυμενη αγαπη
TTITLE10=μεγαλωσα (radio version)
EXTD=
EXTT0=
EXTT1=
EXTT2=
EXTT3=
EXTT4=
EXTT5=
EXTT6=
EXTT7=
EXTT8=
EXTT9=
EXTT10=
PLAYORDER=
